<svg width="190" height="77" viewBox="0 0 190 77" fill="none" xmlns="http://www.w3.org/2000/svg">
<g clip-path="url(#clip0_434_426)">
<path d="M0 27.5607L8.72064 0.380859H18.8122L27.4567 27.5607H19.193L17.7459 22.5048H8.72064L7.27354 27.5607H0ZM13.2523 6.69112L10.2439 17.1449H16.2226L13.2523 6.69112Z" fill="black"/>
<path d="M30.582 27.5607V0.380859H40.9402C44.6214 0.380859 47.3632 1.16648 49.1658 2.73771C50.9684 4.2836 51.8695 6.52638 51.8695 9.46614V9.61819C51.8695 12.4565 50.943 14.636 49.0896 16.1565C47.2617 17.6517 44.6595 18.3993 41.2829 18.3993H38.3506V27.5607H30.582ZM38.3506 13.0774H40.5974C43.1616 13.0774 44.4436 11.937 44.4436 9.65619V9.50414C44.4436 7.32469 43.1743 6.23496 40.6355 6.23496H38.3506V13.0774Z" fill="black"/>
<path d="M55.4258 27.5607V0.380859H66.0887C69.6681 0.380859 72.4101 1.11579 74.3142 2.58565C76.2183 4.03017 77.1703 6.1716 77.1703 9.00998V9.16203C77.1703 12.6593 75.5327 15.0415 72.2578 16.3086L78.7698 27.5607H70.5443L65.0226 17.8291H63.1944V27.5607H55.4258ZM63.1944 12.7733H65.7077C68.3229 12.7733 69.6304 11.6709 69.6304 9.46614V9.31408C69.6304 7.26132 68.3356 6.23496 65.7459 6.23496H63.1944V12.7733Z" fill="black"/>
<path d="M94.5891 21.8959C96.5187 21.8959 98.0417 21.199 99.1588 19.8051C100.276 18.4113 100.834 16.498 100.834 14.065V13.7609C100.834 11.3534 100.263 9.4781 99.1206 8.1349C98.0035 6.76644 96.4805 6.08219 94.5509 6.08219C92.6214 6.08219 91.0983 6.75376 89.9812 8.0969C88.8642 9.44004 88.3054 11.3408 88.3054 13.799V14.1031C88.3054 16.536 88.8769 18.4493 90.0194 19.8431C91.1615 21.2116 92.685 21.8959 94.5891 21.8959ZM94.4368 28.0161C90.0953 28.0161 86.63 26.7363 84.0403 24.1767C81.4511 21.6171 80.1562 18.2719 80.1562 14.1411V13.837C80.1562 9.75683 81.5143 6.43698 84.2308 3.8774C86.9728 1.29246 90.4127 0 94.5509 0C98.765 0 102.218 1.24178 104.909 3.72534C107.625 6.18356 108.984 9.49073 108.984 13.6469V13.951C108.984 18.1579 107.651 21.5537 104.985 24.1387C102.345 26.7236 98.8287 28.0161 94.4368 28.0161Z" fill="black"/>
<path d="M112.809 27.5607V0.380859H123.167C126.848 0.380859 129.59 1.16648 131.392 2.73771C133.195 4.2836 134.096 6.52638 134.096 9.46614V9.61819C134.096 12.4565 133.17 14.636 131.316 16.1565C129.488 17.6517 126.886 18.3993 123.509 18.3993H120.577V27.5607H112.809ZM120.577 13.0774H122.824C125.388 13.0774 126.67 11.937 126.67 9.65619V9.50414C126.67 7.32469 125.401 6.23496 122.862 6.23496H120.577V13.0774Z" fill="black"/>
<path d="M150.816 21.8959C152.745 21.8959 154.268 21.199 155.385 19.8051C156.502 18.4113 157.061 16.498 157.061 14.065V13.7609C157.061 11.3534 156.49 9.4781 155.348 8.1349C154.231 6.76644 152.707 6.08219 150.777 6.08219C148.848 6.08219 147.325 6.75376 146.208 8.0969C145.091 9.44004 144.532 11.3408 144.532 13.799V14.1031C144.532 16.536 145.103 18.4493 146.246 19.8431C147.389 21.2116 148.912 21.8959 150.816 21.8959ZM150.663 28.0161C146.322 28.0161 142.857 26.7363 140.267 24.1767C137.678 21.6171 136.383 18.2719 136.383 14.1411V13.837C136.383 9.75683 137.741 6.43698 140.457 3.8774C143.199 1.29246 146.639 0 150.777 0C154.992 0 158.445 1.24178 161.136 3.72534C163.852 6.18356 165.21 9.49073 165.21 13.6469V13.951C165.21 18.1579 163.878 21.5537 161.212 24.1387C158.572 26.7236 155.055 28.0161 150.663 28.0161Z" fill="black"/>
<path d="M178.643 28.0161C174.86 28.0161 171.992 27.2431 170.037 25.6973C168.082 24.1513 167.041 21.8959 166.914 18.9308H174.34C174.442 20.0459 174.81 20.9202 175.445 21.5537C176.079 22.162 177.146 22.4661 178.643 22.4661C179.735 22.4661 180.585 22.2253 181.195 21.7438C181.829 21.237 182.147 20.5781 182.147 19.7671C182.147 18.9561 181.855 18.3859 181.271 18.0565C180.687 17.7017 179.545 17.3976 177.843 17.1442C174.01 16.688 171.331 15.8264 169.808 14.5592C168.311 13.2668 167.562 11.2394 167.562 8.47706C167.562 5.99351 168.514 3.96609 170.418 2.39486C172.347 0.798285 174.911 0 178.11 0C184.787 0 188.367 2.82568 188.849 8.47706H181.614C181.334 6.52566 180.167 5.54999 178.11 5.54999C177.095 5.54999 176.308 5.7654 175.749 6.19624C175.216 6.60171 174.95 7.15923 174.95 7.86885C174.95 8.65447 175.241 9.23731 175.825 9.61746C176.409 9.99762 177.526 10.3017 179.176 10.5298C182.832 10.9353 185.485 11.7462 187.136 12.9627C188.785 14.1538 189.611 16.1558 189.611 18.9688C189.611 21.5537 188.633 23.7079 186.679 25.4312C184.724 27.1545 182.045 28.0161 178.643 28.0161Z" fill="black"/>
</g>
<path d="M98.1903 54.6038C96.7388 56.1565 95.4899 58.0099 93.7807 59.3079C91.1785 61.2841 88.7942 59.9953 88.877 56.7794C88.5947 56.7794 84.4122 59.3908 84.0562 59.7406C83.1725 60.6152 81.7486 65.1322 81.0582 66.6235C79.7356 69.4773 76.0257 76.0963 72.4354 76.0963C70.3273 76.0963 69.0875 74.1079 69.2962 72.1685C69.6307 69.0723 74.832 63.6899 77.1641 61.6033C78.456 60.4464 80.11 59.7375 80.6869 58.0498C81.2638 56.359 81.7149 54.1496 81.764 52.3913C79.8277 54.6651 77.1764 58.728 74.3778 59.9125C71.5793 61.0969 69.6736 59.133 70.002 56.2424C70.4132 52.6368 76.1607 44.8272 79.9995 44.5203C81.1595 44.4282 81.6443 44.9714 82.4084 45.0235C83.2676 45.0818 83.4026 44.3454 84.5626 45.1708C86.0324 46.2142 85.4494 48.218 85.3665 49.697C85.2561 51.6517 85.2254 53.6648 84.7927 55.5796C84.7467 55.779 84.7589 55.8496 84.986 55.7821L90.3407 52.7626C92.1451 49.9364 95.8458 44.1766 99.3594 43.5629C100.989 43.2775 101.078 44.0999 102.054 44.8364C102.443 45.1309 103.005 45.1862 103.385 45.6281C104.413 46.8248 103.373 48.1566 102.95 49.3411C102.176 51.5075 100.734 55.1745 101.167 57.433C101.48 59.0563 103.861 56.4265 104.125 57.9976C104.432 59.8173 101.946 60.8791 100.424 60.3421C99.2336 59.9217 98.1013 58.1756 98.132 56.942L98.1903 54.6099V54.6038ZM92.274 56.4112C92.3783 56.5186 93.2713 55.8036 93.4186 55.6839C95.1124 54.2938 97.8374 50.9644 99.0525 49.0987C99.252 48.7918 100.209 47.368 100.031 47.1194C96.3337 48.9882 93.6948 52.5693 92.274 56.4081V56.4112ZM81.2086 47.2575C80.8096 46.877 78.4253 48.5647 78.0049 48.9053C75.7771 50.725 73.4787 53.987 72.9939 56.8346C73.1013 56.9635 73.7702 56.4419 73.9114 56.3345C74.7952 55.6502 75.771 54.527 76.532 53.6832C77.023 53.137 81.5891 47.6165 81.2116 47.2544L81.2086 47.2575ZM72.2881 73.0768C72.641 73.5095 75.1235 70.4838 75.3414 70.1892C76.5105 68.6089 77.517 66.7831 78.2075 64.945C76.7407 66.1663 75.3506 67.6239 74.2183 69.1643C73.3836 70.2966 72.4047 71.653 72.2881 73.0768Z" fill="black"/>
<path d="M37.0877 53.9849L46.8613 39.943C47.8401 38.9027 49.3837 36.322 50.8627 36.1225C53.7933 35.7267 53.6276 38.1846 53.3667 40.2958C52.5321 47.0437 50.1907 54.0831 49.2578 60.9875C49.1351 61.8866 49.1842 64.5256 48.7086 65.0411C47.9414 65.8727 46.2138 65.437 45.6706 64.544C44.8973 63.2767 45.5049 59.312 45.7443 57.7563C45.9836 56.2005 46.358 54.6662 46.6649 53.1656C47.3676 49.7134 48.3495 46.295 48.9571 42.8397C45.1091 47.8109 41.7121 53.1625 38.3612 58.4897C37.8426 59.3151 36.8484 61.4325 36.2929 61.9848C35.4798 62.7919 33.5281 62.3653 33.0678 61.2637C32.583 60.1007 33.12 56.8694 33.2888 55.4732C33.7859 51.4012 34.9857 47.1389 35.3969 43.1773C35.4153 43.0116 35.535 42.4807 35.268 42.4991C31.6287 49.4679 28.2164 56.5534 24.982 63.7216C23.9448 65.1823 22.2203 64.5011 22.6438 62.4973C23.1531 60.0761 25.4178 55.5653 26.501 53.1226C28.2133 49.2685 30.0391 45.3406 31.9969 41.6092C32.761 40.1547 34.7003 36.2207 35.9032 35.3707C37.1061 34.5207 38.9074 34.6649 39.4751 36.0673C40.0858 37.574 39.4199 40.5352 39.1652 42.1953C38.5607 46.1354 37.5848 50.0233 37.0877 53.9819V53.9849Z" fill="black"/>
<path d="M161.28 40.554C163.995 40.2257 165.566 41.7446 165.287 44.4603C164.824 48.9651 159.171 52.6812 155.327 54.2155C154.587 59.1744 160.295 56.8606 162.746 55.6853C163.541 55.3048 165.978 53.6294 166.693 53.9731C167.745 54.4763 166.113 56.253 165.652 56.7379C163.158 59.3677 158.518 61.7305 154.955 60.0059C147.265 56.2868 155.293 41.2843 161.273 40.5571L161.28 40.554ZM162.753 43.2605C159.988 44.4235 157.435 47.3111 156.56 50.1802C156.671 50.3091 158.426 49.0295 158.619 48.873C160.27 47.532 162.378 45.3963 162.753 43.2605Z" fill="black"/>
<path d="M145.786 47.6556L144.307 48.7235C142.588 50.5432 140.827 52.3383 139.237 54.2807C138.286 55.4407 136.012 59.0095 135.101 59.66C133.84 60.5622 132.296 59.5158 132.293 58.0674C132.29 56.619 134.548 51.2367 135.196 49.5704C135.662 48.3767 136.963 44.5225 137.599 43.7585C138.234 42.9944 139.179 43.2 139.584 44.0807C139.974 44.9307 139.799 45.8605 139.529 46.7135L137.789 51.3686C139.983 49.1838 142.125 46.6644 144.503 44.6852C145.166 44.1328 146.789 42.8195 147.633 42.8716C148.627 42.9361 149.115 44.0622 149.17 44.946C149.379 48.1681 146.439 55.2228 147.608 57.7421C148.084 58.767 149.677 58.4111 149.956 58.8929C150.103 59.1445 149.575 59.8165 149.376 59.9945C148.376 60.9059 146.955 60.8261 145.844 60.151C142.383 58.0398 144.862 50.7365 145.783 47.6525L145.786 47.6556Z" fill="black"/>
<path d="M66.4738 44.6776C66.6641 44.8862 66.7531 45.2299 66.9587 45.4662C67.468 46.0584 68.1738 46.2027 68.1247 47.2951C68.0664 48.5655 66.5874 51.7323 66.2099 53.3249C66.0013 54.2025 65.0377 58.9313 66.124 59.2259C66.9341 59.3916 68.3457 58.5538 69.0361 58.9159C70.1132 60.1096 68.0081 61.512 66.9218 61.6347C63.126 62.0643 62.5613 58.4618 62.4938 55.5895C62.4908 55.4208 62.6012 55.1784 62.3527 55.2152C61.0792 57.0165 57.3784 61.5181 55.0555 61.3585C53.5948 61.2603 52.6865 60.2907 52.7755 58.8208C53.021 54.7794 58.9864 45.3036 62.9725 44.0577C64.157 43.6864 65.5931 43.7109 66.4738 44.6806V44.6776ZM64.513 46.8348C62.3833 47.7186 60.5422 49.6702 59.2165 51.5328C57.9768 53.2758 56.8046 55.3839 56.2707 57.4675C56.553 57.5412 56.6297 57.3172 56.8046 57.1822C58.968 55.4883 62.7485 51.2014 63.89 48.7281C64.1693 48.1205 64.3994 47.5007 64.513 46.8379V46.8348Z" fill="black"/>
<path d="M110.608 57.7733C112.268 57.5217 113.907 57.132 115.57 56.8926C116.672 56.733 119.762 56.0303 120.394 57.0552C121.075 58.1599 119.434 58.7246 118.654 59.056C116.024 60.173 109.731 61.9497 107.218 60.486C103.732 58.4515 108.037 54.8735 109.811 53.3146C112.48 50.9702 115.567 49.0983 118.105 46.5974C117.97 46.3765 117.82 46.3795 117.593 46.3488C115.825 46.1095 111.728 48.0458 110.71 46.1402C109.9 44.6243 111.9 44.118 112.993 43.8449C115.079 43.3232 118.756 42.9181 120.627 44.0505C124.316 46.2813 119.606 50.1754 117.675 51.857C115.362 53.8731 112.661 55.478 110.602 57.7733H110.608Z" fill="black"/>
<path d="M128.518 43.7871C130.12 43.2716 130.785 45.303 130.595 46.5888C130.221 49.1112 128.309 53.0482 127.563 55.7517C127.22 57.0037 126.98 58.2526 126.753 59.5322C125.658 60.9161 123.976 59.7439 123.847 58.1759C123.58 54.9139 126.167 48.6478 127.551 45.5485C127.714 45.1864 128.248 43.8761 128.521 43.7871H128.518Z" fill="black"/>
<path d="M130.372 36.316C131.489 36.092 132.922 36.7671 133.054 37.97C133.124 38.6236 132.695 40.1119 131.977 40.3206C129.663 40.9895 128.838 36.6229 130.369 36.316H130.372Z" fill="black"/>
<defs>
<clipPath id="clip0_434_426">
<rect width="190" height="28.0161" fill="white"/>
</clipPath>
</defs>
</svg>
